<?xml version="1.0" encoding="UTF-8" standalone="no"?>
<svg
   width="567"
   height="322"
   overflow="hidden"
   version="1.1"
   id="svg99"
   sodipodi:docname="reg_front2.svg"
   inkscape:version="1.2.1 (9c6d41e410, 2022-07-14)"
   xmlns:inkscape="http://www.inkscape.org/namespaces/inkscape"
   xmlns:sodipodi="http://sodipodi.sourceforge.net/DTD/sodipodi-0.dtd"
   xmlns="http://www.w3.org/2000/svg"
   xmlns:svg="http://www.w3.org/2000/svg">
  <sodipodi:namedview
     id="namedview101"
     pagecolor="#ffffff"
     bordercolor="#000000"
     borderopacity="0.25"
     inkscape:showpageshadow="2"
     inkscape:pageopacity="0.0"
     inkscape:pagecheckerboard="0"
     inkscape:deskcolor="#d1d1d1"
     showgrid="false"
     inkscape:zoom="2.4099379"
     inkscape:cx="283.40979"
     inkscape:cy="161.20747"
     inkscape:window-width="2520"
     inkscape:window-height="1469"
     inkscape:window-x="2869"
     inkscape:window-y="-11"
     inkscape:window-maximized="1"
     inkscape:current-layer="svg99" />
  <defs
     id="defs5">
    <clipPath
       id="clip0">
      <rect
         x="30"
         y="22"
         width="567"
         height="322"
         id="rect2" />
    </clipPath>
  </defs>
  <g
     clip-path="url(#clip0)"
     transform="translate(-30 -22)"
     id="g97" />
  <rect
     style="fill:#ffffff;fill-opacity:1;fill-rule:evenodd;stroke:none"
     id="rect714"
     width="531.96393"
     height="324.07474"
     x="51.992268"
     y="20.340208"
     inkscape:export-filename="reg_front.png"
     inkscape:export-xdpi="96"
     inkscape:export-ydpi="96"
     transform="translate(-30,-22)" />
  <path
     d="M126.5 82.5001 126.5 310.876"
     stroke="#4472C4"
     stroke-width="0.666667"
     stroke-miterlimit="8"
     fill="none"
     fill-rule="evenodd"
     id="path7"
     transform="translate(-30,-22)" />
  <path
     d="M126.5 23.5001 126.5 310.35"
     stroke="#000000"
     stroke-width="1.33333"
     stroke-miterlimit="8"
     fill="none"
     fill-rule="evenodd"
     id="path9"
     transform="translate(-30,-22)" />
  <path
     d="M126.5 309.5 482.294 309.5"
     stroke="#000000"
     stroke-width="1.33333"
     stroke-miterlimit="8"
     fill="none"
     fill-rule="evenodd"
     id="path11"
     transform="translate(-30,-22)" />
  <path
     d="M0 3.5C-3.8194e-16 1.567 1.34315 -4.45597e-16 3 -8.91193e-16 4.65685-1.78239e-15 6 1.567 6 3.5 6 5.433 4.65685 7 3 7 1.34315 7-1.9097e-15 5.433 0 3.5Z"
     stroke="#AE5A21"
     stroke-width="1.33333"
     stroke-miterlimit="8"
     fill="#ED7D31"
     fill-rule="evenodd"
     transform="matrix(1,0,0,-1,177.5,110.5)"
     id="path13" />
  <path
     d="M0 0 266.986 216.907"
     stroke="#4472C4"
     stroke-width="1.33333"
     stroke-miterlimit="8"
     stroke-dasharray="5.33333 4"
     fill="none"
     fill-rule="evenodd"
     transform="matrix(1,0,0,-1,96.5,269.407)"
     id="path15" />
  <path
     d="M0 3.5C-3.18283e-16 1.567 1.11929 -4.45597e-16 2.5 -8.91193e-16 3.88071-1.78239e-15 5 1.567 5 3.5 5 5.433 3.88071 7 2.5 7 1.11929 7-1.59142e-15 5.433 0 3.5Z"
     stroke="#AE5A21"
     stroke-width="1.33333"
     stroke-miterlimit="8"
     fill="#ED7D31"
     fill-rule="evenodd"
     transform="matrix(1,0,0,-1,141.5,191.5)"
     id="path17" />
  <path
     d="M0 3.5C-3.8194e-16 1.567 1.34315 -4.45597e-16 3 -8.91193e-16 4.65685-1.78239e-15 6 1.567 6 3.5 6 5.433 4.65685 7 3 7 1.34315 7-1.9097e-15 5.433 0 3.5Z"
     stroke="#AE5A21"
     stroke-width="1.33333"
     stroke-miterlimit="8"
     fill="#ED7D31"
     fill-rule="evenodd"
     transform="matrix(1,0,0,-1,195.5,259.5)"
     id="path19" />
  <path
     d="M0 3C-3.8194e-16 1.34315 1.34315 -3.8194e-16 3 -7.6388e-16 4.65685-1.52776e-15 6 1.34315 6 3 6 4.65685 4.65685 6 3 6 1.34315 6-1.9097e-15 4.65685 0 3Z"
     stroke="#AE5A21"
     stroke-width="1.33333"
     stroke-miterlimit="8"
     fill="#ED7D31"
     fill-rule="evenodd"
     transform="matrix(1,0,0,-1,236.5,177.5)"
     id="path21" />
  <path
     d="M0 3.5C-3.8194e-16 1.567 1.34315 -4.45597e-16 3 -8.91193e-16 4.65685-1.78239e-15 6 1.567 6 3.5 6 5.433 4.65685 7 3 7 1.34315 7-1.9097e-15 5.433 0 3.5Z"
     stroke="#AE5A21"
     stroke-width="1.33333"
     stroke-miterlimit="8"
     fill="#ED7D31"
     fill-rule="evenodd"
     transform="matrix(1,0,0,-1,228.5,118.5)"
     id="path23" />
  <path
     d="M0 3.5C-3.8194e-16 1.567 1.34315 -4.45597e-16 3 -8.91193e-16 4.65685-1.78239e-15 6 1.567 6 3.5 6 5.433 4.65685 7 3 7 1.34315 7-1.9097e-15 5.433 0 3.5Z"
     stroke="#AE5A21"
     stroke-width="1.33333"
     stroke-miterlimit="8"
     fill="#ED7D31"
     fill-rule="evenodd"
     transform="matrix(1,0,0,-1,299.5,152.5)"
     id="path25" />
  <path
     d="M0 3.5C-3.8194e-16 1.567 1.34315 -4.45597e-16 3 -8.91193e-16 4.65685-1.78239e-15 6 1.567 6 3.5 6 5.433 4.65685 7 3 7 1.34315 7-1.9097e-15 5.433 0 3.5Z"
     stroke="#AE5A21"
     stroke-width="1.33333"
     stroke-miterlimit="8"
     fill="#ED7D31"
     fill-rule="evenodd"
     transform="matrix(1,0,0,-1,344.5,103.5)"
     id="path27" />
  <path
     d="M0 3C-3.8194e-16 1.34315 1.34315 -3.8194e-16 3 -7.6388e-16 4.65685-1.52776e-15 6 1.34315 6 3 6 4.65685 4.65685 6 3 6 1.34315 6-1.9097e-15 4.65685 0 3Z"
     stroke="#AE5A21"
     stroke-width="1.33333"
     stroke-miterlimit="8"
     fill="#ED7D31"
     fill-rule="evenodd"
     transform="matrix(1,0,0,-1,291.5,66.5001)"
     id="path29" />
  <path
     d="M228 207 228 275.105"
     stroke="#000000"
     stroke-width="2"
     stroke-miterlimit="8"
     stroke-dasharray="8 6"
     fill="none"
     fill-rule="evenodd"
     id="path31"
     transform="translate(-30,-22)" />
  <path
     d="M210 132 210 222.699"
     stroke="#000000"
     stroke-width="2"
     stroke-miterlimit="8"
     stroke-dasharray="8 6"
     fill="none"
     fill-rule="evenodd"
     id="path33"
     transform="translate(-30,-22)" />
  <path
     d="M173 215 173 252.788"
     stroke="#000000"
     stroke-width="2"
     stroke-miterlimit="8"
     stroke-dasharray="8 6"
     fill="none"
     fill-rule="evenodd"
     id="path35"
     transform="translate(-30,-22)" />
  <path
     d="M260 141 260 178.788"
     stroke="#000000"
     stroke-width="2"
     stroke-miterlimit="8"
     stroke-dasharray="8 6"
     fill="none"
     fill-rule="evenodd"
     id="path37"
     transform="translate(-30,-22)" />
  <path
     d="M332 125 332 162.788"
     stroke="#000000"
     stroke-width="2"
     stroke-miterlimit="8"
     stroke-dasharray="8 6"
     fill="none"
     fill-rule="evenodd"
     id="path39"
     transform="translate(-30,-22)" />
  <path
     d="M377 88 377 118.018"
     stroke="#000000"
     stroke-width="2"
     stroke-miterlimit="8"
     stroke-dasharray="8 6"
     fill="none"
     fill-rule="evenodd"
     id="path41"
     transform="translate(-30,-22)" />
  <path
     d="M324 88 324 127.711"
     stroke="#000000"
     stroke-width="2"
     stroke-miterlimit="8"
     stroke-dasharray="8 6"
     fill="none"
     fill-rule="evenodd"
     id="path43"
     transform="translate(-30,-22)" />
  <path
     d="M269 176 269 195.289"
     stroke="#000000"
     stroke-width="2"
     stroke-miterlimit="8"
     stroke-dasharray="8 6"
     fill="none"
     fill-rule="evenodd"
     id="path45"
     transform="translate(-30,-22)" />
  <text
     font-family="Arial, Arial_MSFontService, sans-serif"
     font-weight="400"
     font-size="16px"
     transform="translate(204.244,308)"
     id="text47">Independent variable (x)</text>
  <text
     font-family="Arial,Arial_MSFontService,sans-serif"
     font-weight="400"
     font-size="16"
     transform="rotate(-90,143.6315,54.3685)"
     id="text49">Dependent variable (y)</text>
  <path
     d="M363.5 188.5 401.704 188.5"
     stroke="#4472C4"
     stroke-width="1.33333"
     stroke-miterlimit="8"
     stroke-dasharray="5.33333 4"
     fill="none"
     fill-rule="evenodd"
     id="path51"
     transform="translate(-30,-22)" />
  <text
     font-family="Arial,Arial_MSFontService,sans-serif"
     font-weight="400"
     font-size="13"
     transform="translate(378.539,171)"
     id="text55">Regression <tspan
   font-size="13"
   x="70.8333"
   y="0"
   id="tspan53">line (predicted y)</tspan></text>
  <path
     d="M0 3.5C-3.8194e-16 1.567 1.34315 -4.45597e-16 3 -8.91193e-16 4.65685-1.78239e-15 6 1.567 6 3.5 6 5.433 4.65685 7 3 7 1.34315 7-1.9097e-15 5.433 0 3.5Z"
     stroke="#AE5A21"
     stroke-width="1.33333"
     stroke-miterlimit="8"
     fill="#ED7D31"
     fill-rule="evenodd"
     transform="matrix(1,0,0,-1,363.5,191.5)"
     id="path57" />
  <text
     font-family="Arial,Arial_MSFontService,sans-serif"
     font-weight="400"
     font-size="13"
     transform="translate(377.019,191)"
     id="text61">Actual <tspan
   font-size="13"
   x="40.5"
   y="0"
   id="tspan59">data (actual y)</tspan></text>
  <path
     d="M366 236 404.204 236"
     stroke="#000000"
     stroke-width="2"
     stroke-miterlimit="8"
     stroke-dasharray="8 6"
     fill="none"
     fill-rule="evenodd"
     id="path63"
     transform="translate(-30,-22)" />
  <text
     font-family="Arial, Arial_MSFontService, sans-serif"
     font-weight="400"
     font-size="13px"
     transform="translate(378.539,219)"
     id="text79">Residuals (error) <tspan
   font-size="13px"
   x="0"
   y="16"
   id="tspan65">(actual y</tspan><tspan
   font-size="13px"
   x="53.833302"
   y="16"
   id="tspan67">-</tspan><tspan
   font-size="13px"
   x="62"
   y="16"
   id="tspan69">predicted y)</tspan><tspan
   font-size="13px"
   x="-350.82199"
   y="56"
   id="tspan71">y</tspan>-intercept <tspan
   font-size="13px"
   x="-327.98801"
   y="72"
   id="tspan73">(b₀)</tspan><tspan
   font-size="13px"
   x="-13.5093"
   y="-171"
   id="tspan75">y = b₀+b₁x+e</tspan><tspan
   font-size="13px"
   x="8.3240099"
   y="-171"
   id="tspan77" /></text>
  <path
     d="M234 201 312.656 202.639"
     stroke="#A5A5A5"
     stroke-width="2"
     stroke-miterlimit="8"
     fill="none"
     fill-rule="evenodd"
     id="path81"
     transform="translate(-30,-22)" />
  <path
     d="M313 139 313 202.927"
     stroke="#A5A5A5"
     stroke-width="2"
     stroke-miterlimit="8"
     fill="none"
     fill-rule="evenodd"
     id="path83"
     transform="translate(-30,-22)" />
  <text
     font-family="Arial,Arial_MSFontService,sans-serif"
     font-weight="400"
     font-size="11"
     transform="translate(258.421,191)"
     id="text87">ΔX<tspan
   font-size="11"
   x="28.2546"
   y="-17"
   id="tspan85">Δy</tspan></text>
  <path
     d="M368 274 398.373 274"
     stroke="#A5A5A5"
     stroke-width="2"
     stroke-miterlimit="8"
     fill="none"
     fill-rule="evenodd"
     id="path89"
     transform="translate(-30,-22)" />
  <text
     font-family="Arial, Arial_MSFontService, sans-serif"
     font-weight="400"
     font-size="13px"
     transform="translate(376.645,256)"
     id="text95">Slope (b₁= Δy/ Δx)</text>
</svg>
